<mxfile host="app.diagrams.net" modified="2021-08-15T15:20:28.976Z" agent="5.0 (Windows NT 10.0; Win64; x64) AppleWebKit/537.36 (KHTML, like Gecko) Chrome/92.0.4515.131 Safari/537.36" etag="y8gotWkiMJPRybj_xAhD" version="14.9.6" type="github">
  <diagram id="u9rmBCMYCCIG7NWae9h2" name="Page-1">
    <mxGraphModel dx="1422" dy="772" grid="1" gridSize="10" guides="1" tooltips="1" connect="1" arrows="1" fold="1" page="1" pageScale="1" pageWidth="1100" pageHeight="850" background="none" math="0" shadow="0">
      <root>
        <mxCell id="0" />
        <mxCell id="1" parent="0" />
        <mxCell id="rJmhIVzwNz01ImwInZKe-18" value="" style="rounded=0;whiteSpace=wrap;html=1;fillColor=none;strokeColor=#FF8000;strokeWidth=2;dashed=1;" parent="1" vertex="1">
          <mxGeometry x="10" y="10" width="940" height="470" as="geometry" />
        </mxCell>
        <mxCell id="RZzfeHZHGAf05nBwqaJ7-15" value="" style="rounded=1;whiteSpace=wrap;html=1;dashed=1;fillColor=none;" parent="1" vertex="1">
          <mxGeometry x="17.5" y="31.98" width="262.5" height="98.02" as="geometry" />
        </mxCell>
        <mxCell id="rJmhIVzwNz01ImwInZKe-5" style="edgeStyle=orthogonalEdgeStyle;rounded=0;orthogonalLoop=1;jettySize=auto;html=1;" parent="1" source="RZzfeHZHGAf05nBwqaJ7-4" target="RZzfeHZHGAf05nBwqaJ7-31" edge="1">
          <mxGeometry relative="1" as="geometry">
            <Array as="points">
              <mxPoint x="130" y="350" />
              <mxPoint x="130" y="350" />
            </Array>
          </mxGeometry>
        </mxCell>
        <mxCell id="AcElcrpQGb6ZpyNq7cNs-16" style="edgeStyle=orthogonalEdgeStyle;rounded=1;orthogonalLoop=1;jettySize=auto;html=1;strokeColor=#330000;" parent="1" source="RZzfeHZHGAf05nBwqaJ7-4" target="RZzfeHZHGAf05nBwqaJ7-25" edge="1">
          <mxGeometry relative="1" as="geometry" />
        </mxCell>
        <mxCell id="RZzfeHZHGAf05nBwqaJ7-4" value="" style="outlineConnect=0;fontColor=#232F3E;gradientColor=none;fillColor=#D05C17;strokeColor=none;dashed=0;verticalLabelPosition=bottom;verticalAlign=top;align=center;html=1;fontSize=12;fontStyle=0;aspect=fixed;pointerEvents=1;shape=mxgraph.aws4.lambda_function;" parent="1" vertex="1">
          <mxGeometry x="111.75" y="199" width="70" height="70" as="geometry" />
        </mxCell>
        <mxCell id="RZzfeHZHGAf05nBwqaJ7-10" value="" style="outlineConnect=0;dashed=0;verticalLabelPosition=bottom;verticalAlign=top;align=center;html=1;shape=mxgraph.aws3.cloudwatch;fillColor=#759C3E;gradientColor=none;" parent="1" vertex="1">
          <mxGeometry x="47.5" y="50.00000000000001" width="42.5" height="47.91" as="geometry" />
        </mxCell>
        <mxCell id="RZzfeHZHGAf05nBwqaJ7-18" value="Event triggers" style="text;html=1;align=center;verticalAlign=middle;resizable=0;points=[];autosize=1;strokeColor=none;fontStyle=1" parent="1" vertex="1">
          <mxGeometry x="98.75" y="11.98" width="100" height="20" as="geometry" />
        </mxCell>
        <mxCell id="AcElcrpQGb6ZpyNq7cNs-21" style="edgeStyle=orthogonalEdgeStyle;rounded=1;orthogonalLoop=1;jettySize=auto;html=1;strokeColor=#330000;" parent="1" source="RZzfeHZHGAf05nBwqaJ7-20" target="RZzfeHZHGAf05nBwqaJ7-4" edge="1">
          <mxGeometry relative="1" as="geometry">
            <Array as="points">
              <mxPoint x="70" y="120" />
              <mxPoint x="147" y="120" />
            </Array>
          </mxGeometry>
        </mxCell>
        <mxCell id="RZzfeHZHGAf05nBwqaJ7-20" value="Cloud watch" style="text;html=1;align=center;verticalAlign=middle;resizable=0;points=[];autosize=1;strokeColor=none;" parent="1" vertex="1">
          <mxGeometry x="28.75" y="97.91" width="80" height="20" as="geometry" />
        </mxCell>
        <mxCell id="RZzfeHZHGAf05nBwqaJ7-21" value="API Gateway" style="text;html=1;align=center;verticalAlign=middle;resizable=0;points=[];autosize=1;strokeColor=none;" parent="1" vertex="1">
          <mxGeometry x="180" y="97.91" width="90" height="20" as="geometry" />
        </mxCell>
        <mxCell id="RZzfeHZHGAf05nBwqaJ7-24" value="" style="outlineConnect=0;fontColor=#232F3E;gradientColor=none;fillColor=#116D5B;strokeColor=none;dashed=0;verticalLabelPosition=bottom;verticalAlign=top;align=center;html=1;fontSize=12;fontStyle=0;aspect=fixed;shape=mxgraph.aws4.transfer_for_sftp_resource;" parent="1" vertex="1">
          <mxGeometry x="990" y="199" width="69.18" height="71" as="geometry" />
        </mxCell>
        <mxCell id="AcElcrpQGb6ZpyNq7cNs-15" style="edgeStyle=orthogonalEdgeStyle;rounded=1;orthogonalLoop=1;jettySize=auto;html=1;strokeColor=#330000;" parent="1" source="RZzfeHZHGAf05nBwqaJ7-25" target="AcElcrpQGb6ZpyNq7cNs-9" edge="1">
          <mxGeometry relative="1" as="geometry" />
        </mxCell>
        <mxCell id="AcElcrpQGb6ZpyNq7cNs-24" style="edgeStyle=orthogonalEdgeStyle;rounded=1;orthogonalLoop=1;jettySize=auto;html=1;strokeColor=#330000;" parent="1" source="RZzfeHZHGAf05nBwqaJ7-25" target="rJmhIVzwNz01ImwInZKe-10" edge="1">
          <mxGeometry relative="1" as="geometry">
            <Array as="points">
              <mxPoint x="500" y="150" />
              <mxPoint x="500" y="150" />
            </Array>
          </mxGeometry>
        </mxCell>
        <mxCell id="RZzfeHZHGAf05nBwqaJ7-25" value="" style="outlineConnect=0;fontColor=#232F3E;gradientColor=none;fillColor=#277116;strokeColor=none;dashed=0;verticalLabelPosition=bottom;verticalAlign=top;align=center;html=1;fontSize=12;fontStyle=0;aspect=fixed;pointerEvents=1;shape=mxgraph.aws4.bucket;" parent="1" vertex="1">
          <mxGeometry x="370" y="141.01" width="58.64" height="60.99" as="geometry" />
        </mxCell>
        <mxCell id="rJmhIVzwNz01ImwInZKe-6" style="edgeStyle=orthogonalEdgeStyle;rounded=0;orthogonalLoop=1;jettySize=auto;html=1;" parent="1" source="RZzfeHZHGAf05nBwqaJ7-31" edge="1">
          <mxGeometry relative="1" as="geometry">
            <mxPoint x="160" y="270" as="targetPoint" />
            <Array as="points">
              <mxPoint x="160" y="280" />
            </Array>
          </mxGeometry>
        </mxCell>
        <mxCell id="RZzfeHZHGAf05nBwqaJ7-31" value="" style="verticalLabelPosition=bottom;html=1;verticalAlign=top;align=center;strokeColor=none;fillColor=#00BEF2;shape=mxgraph.azure.sql_reporting;dashed=1;" parent="1" vertex="1">
          <mxGeometry x="118.38" y="580" width="56.75" height="70.94" as="geometry" />
        </mxCell>
        <mxCell id="AcElcrpQGb6ZpyNq7cNs-23" style="edgeStyle=orthogonalEdgeStyle;rounded=1;orthogonalLoop=1;jettySize=auto;html=1;strokeColor=#330000;" parent="1" source="rJmhIVzwNz01ImwInZKe-10" target="RZzfeHZHGAf05nBwqaJ7-25" edge="1">
          <mxGeometry relative="1" as="geometry">
            <Array as="points">
              <mxPoint x="460" y="190" />
              <mxPoint x="460" y="190" />
            </Array>
          </mxGeometry>
        </mxCell>
        <mxCell id="AcElcrpQGb6ZpyNq7cNs-27" style="edgeStyle=orthogonalEdgeStyle;rounded=1;orthogonalLoop=1;jettySize=auto;html=1;entryX=0;entryY=0.5;entryDx=0;entryDy=0;strokeColor=#330000;" parent="1" source="rJmhIVzwNz01ImwInZKe-10" target="AcElcrpQGb6ZpyNq7cNs-17" edge="1">
          <mxGeometry relative="1" as="geometry" />
        </mxCell>
        <mxCell id="rJmhIVzwNz01ImwInZKe-10" value="" style="outlineConnect=0;fontColor=#232F3E;gradientColor=none;fillColor=#D05C17;strokeColor=none;dashed=0;verticalLabelPosition=bottom;verticalAlign=top;align=center;html=1;fontSize=12;fontStyle=0;aspect=fixed;pointerEvents=1;shape=mxgraph.aws4.lambda_function;" parent="1" vertex="1">
          <mxGeometry x="570" y="132.01" width="69.99" height="69.99" as="geometry" />
        </mxCell>
        <mxCell id="rJmhIVzwNz01ImwInZKe-19" value="Reporting Service" style="text;html=1;align=center;verticalAlign=middle;resizable=0;points=[];autosize=1;strokeColor=none;fontStyle=1" parent="1" vertex="1">
          <mxGeometry x="86.75" y="660" width="120" height="20" as="geometry" />
        </mxCell>
        <mxCell id="rJmhIVzwNz01ImwInZKe-21" value="2" style="text;html=1;strokeColor=none;fillColor=none;align=center;verticalAlign=middle;whiteSpace=wrap;rounded=0;dashed=1;dashPattern=1 2;fontStyle=1" parent="1" vertex="1">
          <mxGeometry x="98.75" y="340" width="40" height="20" as="geometry" />
        </mxCell>
        <mxCell id="rJmhIVzwNz01ImwInZKe-22" value="3" style="text;html=1;strokeColor=none;fillColor=none;align=center;verticalAlign=middle;whiteSpace=wrap;rounded=0;dashed=1;dashPattern=1 2;fontStyle=1" parent="1" vertex="1">
          <mxGeometry x="150" y="340" width="40" height="20" as="geometry" />
        </mxCell>
        <mxCell id="rJmhIVzwNz01ImwInZKe-23" value="4" style="text;html=1;strokeColor=none;fillColor=none;align=center;verticalAlign=middle;whiteSpace=wrap;rounded=0;dashed=1;dashPattern=1 2;fontStyle=1" parent="1" vertex="1">
          <mxGeometry x="202.75" y="210" width="40" height="20" as="geometry" />
        </mxCell>
        <mxCell id="rJmhIVzwNz01ImwInZKe-24" value="5" style="text;html=1;strokeColor=none;fillColor=none;align=center;verticalAlign=middle;whiteSpace=wrap;rounded=0;dashed=1;dashPattern=1 2;fontStyle=1" parent="1" vertex="1">
          <mxGeometry x="360" y="209.01" width="40" height="20" as="geometry" />
        </mxCell>
        <mxCell id="AcElcrpQGb6ZpyNq7cNs-5" value="" style="aspect=fixed;perimeter=ellipsePerimeter;html=1;align=center;shadow=0;dashed=0;fontColor=#4277BB;labelBackgroundColor=#ffffff;fontSize=12;spacingTop=3;image;image=img/lib/ibm/management/monitoring_metrics.svg;fillColor=none;" parent="1" vertex="1">
          <mxGeometry x="400" y="580" width="70" height="70" as="geometry" />
        </mxCell>
        <mxCell id="AcElcrpQGb6ZpyNq7cNs-20" style="edgeStyle=orthogonalEdgeStyle;rounded=1;orthogonalLoop=1;jettySize=auto;html=1;strokeColor=#330000;" parent="1" source="AcElcrpQGb6ZpyNq7cNs-8" target="RZzfeHZHGAf05nBwqaJ7-4" edge="1">
          <mxGeometry relative="1" as="geometry" />
        </mxCell>
        <mxCell id="AcElcrpQGb6ZpyNq7cNs-8" value="" style="outlineConnect=0;fontColor=#232F3E;gradientColor=none;fillColor=#BC1356;strokeColor=none;dashed=0;verticalLabelPosition=bottom;verticalAlign=top;align=center;html=1;fontSize=12;fontStyle=0;aspect=fixed;pointerEvents=1;shape=mxgraph.aws4.endpoint;" parent="1" vertex="1">
          <mxGeometry x="195.75" y="50" width="47.91" height="47.91" as="geometry" />
        </mxCell>
        <mxCell id="AcElcrpQGb6ZpyNq7cNs-26" style="edgeStyle=orthogonalEdgeStyle;rounded=1;orthogonalLoop=1;jettySize=auto;html=1;strokeColor=#330000;" parent="1" source="AcElcrpQGb6ZpyNq7cNs-9" target="rJmhIVzwNz01ImwInZKe-10" edge="1">
          <mxGeometry relative="1" as="geometry" />
        </mxCell>
        <mxCell id="AcElcrpQGb6ZpyNq7cNs-9" value="" style="outlineConnect=0;fontColor=#232F3E;gradientColor=none;fillColor=#BC1356;strokeColor=none;dashed=0;verticalLabelPosition=bottom;verticalAlign=top;align=center;html=1;fontSize=12;fontStyle=0;aspect=fixed;pointerEvents=1;shape=mxgraph.aws4.queue;" parent="1" vertex="1">
          <mxGeometry x="367.58000000000004" y="269" width="63.49" height="38.26" as="geometry" />
        </mxCell>
        <mxCell id="AcElcrpQGb6ZpyNq7cNs-29" style="edgeStyle=orthogonalEdgeStyle;rounded=1;orthogonalLoop=1;jettySize=auto;html=1;entryX=0.5;entryY=0;entryDx=0;entryDy=0;strokeColor=#330000;" parent="1" source="AcElcrpQGb6ZpyNq7cNs-17" target="AcElcrpQGb6ZpyNq7cNs-28" edge="1">
          <mxGeometry relative="1" as="geometry" />
        </mxCell>
        <mxCell id="AcElcrpQGb6ZpyNq7cNs-30" style="edgeStyle=orthogonalEdgeStyle;rounded=1;orthogonalLoop=1;jettySize=auto;html=1;strokeColor=#330000;" parent="1" source="AcElcrpQGb6ZpyNq7cNs-17" target="RZzfeHZHGAf05nBwqaJ7-24" edge="1">
          <mxGeometry relative="1" as="geometry" />
        </mxCell>
        <mxCell id="AcElcrpQGb6ZpyNq7cNs-17" value="&lt;span style=&quot;font-size: 11px&quot;&gt;Success&lt;/span&gt;" style="rhombus;whiteSpace=wrap;html=1;fillColor=none;fontStyle=1" parent="1" vertex="1">
          <mxGeometry x="720" y="127.01" width="110" height="80" as="geometry" />
        </mxCell>
        <mxCell id="AcElcrpQGb6ZpyNq7cNs-31" style="edgeStyle=orthogonalEdgeStyle;rounded=1;orthogonalLoop=1;jettySize=auto;html=1;strokeColor=#330000;" parent="1" source="AcElcrpQGb6ZpyNq7cNs-28" target="AcElcrpQGb6ZpyNq7cNs-9" edge="1">
          <mxGeometry relative="1" as="geometry">
            <Array as="points">
              <mxPoint x="399" y="340" />
            </Array>
          </mxGeometry>
        </mxCell>
        <mxCell id="AcElcrpQGb6ZpyNq7cNs-43" style="edgeStyle=orthogonalEdgeStyle;rounded=1;orthogonalLoop=1;jettySize=auto;html=1;fontColor=#330000;strokeColor=#330000;" parent="1" source="AcElcrpQGb6ZpyNq7cNs-28" target="AcElcrpQGb6ZpyNq7cNs-42" edge="1">
          <mxGeometry relative="1" as="geometry">
            <Array as="points">
              <mxPoint x="775" y="406" />
            </Array>
          </mxGeometry>
        </mxCell>
        <mxCell id="AcElcrpQGb6ZpyNq7cNs-28" value="&lt;font style=&quot;font-size: 11px&quot;&gt;Maximum Retry Attempts (3)&lt;/font&gt;" style="rhombus;whiteSpace=wrap;html=1;fillColor=none;fontStyle=1" parent="1" vertex="1">
          <mxGeometry x="720" y="300" width="110" height="80" as="geometry" />
        </mxCell>
        <mxCell id="AcElcrpQGb6ZpyNq7cNs-36" value="&lt;b&gt;Yes&lt;/b&gt;" style="text;html=1;strokeColor=none;fillColor=none;align=center;verticalAlign=middle;whiteSpace=wrap;rounded=0;" parent="1" vertex="1">
          <mxGeometry x="840" y="141.01" width="40" height="20" as="geometry" />
        </mxCell>
        <mxCell id="AcElcrpQGb6ZpyNq7cNs-37" value="&lt;b&gt;No&lt;/b&gt;" style="text;html=1;strokeColor=none;fillColor=none;align=center;verticalAlign=middle;whiteSpace=wrap;rounded=0;" parent="1" vertex="1">
          <mxGeometry x="770" y="220" width="40" height="20" as="geometry" />
        </mxCell>
        <mxCell id="AcElcrpQGb6ZpyNq7cNs-39" value="&lt;b&gt;Yes&lt;/b&gt;" style="text;html=1;strokeColor=none;fillColor=none;align=center;verticalAlign=middle;whiteSpace=wrap;rounded=0;" parent="1" vertex="1">
          <mxGeometry x="730" y="380" width="40" height="20" as="geometry" />
        </mxCell>
        <mxCell id="AcElcrpQGb6ZpyNq7cNs-40" value="&lt;b&gt;No&lt;/b&gt;" style="text;html=1;strokeColor=none;fillColor=none;align=center;verticalAlign=middle;whiteSpace=wrap;rounded=0;" parent="1" vertex="1">
          <mxGeometry x="670" y="320" width="40" height="20" as="geometry" />
        </mxCell>
        <mxCell id="AcElcrpQGb6ZpyNq7cNs-41" value="Monitoring service" style="text;html=1;align=center;verticalAlign=middle;resizable=0;points=[];autosize=1;strokeColor=none;fontStyle=1" parent="1" vertex="1">
          <mxGeometry x="375" y="660" width="120" height="20" as="geometry" />
        </mxCell>
        <mxCell id="AcElcrpQGb6ZpyNq7cNs-44" style="edgeStyle=orthogonalEdgeStyle;rounded=1;orthogonalLoop=1;jettySize=auto;html=1;entryX=0.5;entryY=0;entryDx=0;entryDy=0;fontColor=#330000;strokeColor=#330000;" parent="1" source="AcElcrpQGb6ZpyNq7cNs-42" target="AcElcrpQGb6ZpyNq7cNs-5" edge="1">
          <mxGeometry relative="1" as="geometry" />
        </mxCell>
        <mxCell id="AcElcrpQGb6ZpyNq7cNs-42" value="" style="aspect=fixed;html=1;points=[];align=center;image;fontSize=12;image=img/lib/azure2/general/Storage_Queue.svg;fontColor=#330000;fillColor=none;" parent="1" vertex="1">
          <mxGeometry x="367.58" y="380" width="64" height="52" as="geometry" />
        </mxCell>
        <mxCell id="AcElcrpQGb6ZpyNq7cNs-45" value="" style="rounded=1;whiteSpace=wrap;html=1;fontColor=#330000;fillColor=none;arcSize=15;direction=south;dashed=1;" parent="1" vertex="1">
          <mxGeometry x="330" y="250" width="140" height="200" as="geometry" />
        </mxCell>
        <mxCell id="AcElcrpQGb6ZpyNq7cNs-46" value="SQS dead-letter queue" style="text;html=1;strokeColor=none;fillColor=none;align=center;verticalAlign=middle;whiteSpace=wrap;rounded=0;dashed=1;fontColor=#330000;rotation=0;fontStyle=1" parent="1" vertex="1">
          <mxGeometry x="319.32" y="350" width="160" height="20" as="geometry" />
        </mxCell>
        <mxCell id="AcElcrpQGb6ZpyNq7cNs-47" value="" style="outlineConnect=0;dashed=0;verticalLabelPosition=bottom;verticalAlign=top;align=center;html=1;shape=mxgraph.aws3.cloud_2;fillColor=#F58534;gradientColor=none;fontColor=#330000;strokeColor=#FF8000;" parent="1" vertex="1">
          <mxGeometry x="890" y="10" width="60" height="60" as="geometry" />
        </mxCell>
        <mxCell id="iQiQtF9T_YVERbBWW09S-1" value="1" style="text;html=1;strokeColor=none;fillColor=none;align=center;verticalAlign=middle;whiteSpace=wrap;rounded=0;dashed=1;dashPattern=1 2;fontStyle=1" vertex="1" parent="1">
          <mxGeometry x="135.13" y="141.01" width="40" height="20" as="geometry" />
        </mxCell>
        <mxCell id="iQiQtF9T_YVERbBWW09S-2" value="6" style="text;html=1;strokeColor=none;fillColor=none;align=center;verticalAlign=middle;whiteSpace=wrap;rounded=0;dashed=1;dashPattern=1 2;fontStyle=1" vertex="1" parent="1">
          <mxGeometry x="510" y="269" width="40" height="20" as="geometry" />
        </mxCell>
        <mxCell id="iQiQtF9T_YVERbBWW09S-3" value="7" style="text;html=1;strokeColor=none;fillColor=none;align=center;verticalAlign=middle;whiteSpace=wrap;rounded=0;dashed=1;dashPattern=1 2;fontStyle=1" vertex="1" parent="1">
          <mxGeometry x="480" y="170" width="40" height="20" as="geometry" />
        </mxCell>
        <mxCell id="iQiQtF9T_YVERbBWW09S-4" value="8" style="text;html=1;strokeColor=none;fillColor=none;align=center;verticalAlign=middle;whiteSpace=wrap;rounded=0;dashed=1;dashPattern=1 2;fontStyle=1" vertex="1" parent="1">
          <mxGeometry x="470" y="127.00999999999999" width="40" height="20" as="geometry" />
        </mxCell>
        <mxCell id="iQiQtF9T_YVERbBWW09S-5" value="9" style="text;html=1;strokeColor=none;fillColor=none;align=center;verticalAlign=middle;whiteSpace=wrap;rounded=0;dashed=1;dashPattern=1 2;fontStyle=1" vertex="1" parent="1">
          <mxGeometry x="650" y="147.01" width="40" height="20" as="geometry" />
        </mxCell>
      </root>
    </mxGraphModel>
  </diagram>
</mxfile>
